<?xml version="1.0" standalone="no"?>
<!DOCTYPE svg PUBLIC "-//W3C//DTD SVG 20010904//EN"
 "http://www.w3.org/TR/2001/REC-SVG-20010904/DTD/svg10.dtd">
<svg version="1.0" xmlns="http://www.w3.org/2000/svg"
 width="436.000000pt" height="436.000000pt" viewBox="0 0 436.000000 436.000000"
 preserveAspectRatio="xMidYMid meet">
<metadata>
Created by potrace 1.14, written by Peter Selinger 2001-2017
</metadata>
<g transform="translate(0.000000,436.000000) scale(0.100000,-0.100000)"
fill="#000000" stroke="none">
<path d="M671 3798 c-59 -118 -81 -215 -81 -358 0 -195 48 -381 151 -581 l49
-96 -19 -57 c-104 -301 -312 -401 -577 -277 -95 45 -86 51 -105 -71 -6 -43
-10 -126 -7 -190 4 -93 11 -130 37 -208 18 -52 45 -119 62 -149 16 -30 27 -56
26 -58 -2 -2 -48 21 -103 51 -54 30 -100 53 -102 52 -7 -8 177 -351 235 -440
79 -118 235 -284 353 -372 71 -54 273 -164 370 -201 19 -8 -1 -12 -96 -22 -67
-7 -126 -16 -132 -20 -11 -6 365 -131 458 -151 79 -18 270 -23 380 -11 l104
11 51 -48 c53 -52 113 -92 137 -92 8 0 25 11 38 25 29 31 32 31 78 0 109 -72
293 -71 423 3 l48 27 31 -30 30 -29 43 21 c24 11 68 43 98 71 l55 51 80 -11
c95 -12 315 -4 399 15 92 21 455 140 455 149 0 4 -19 8 -42 9 -24 0 -83 6
-133 12 l-90 12 50 19 c94 35 262 128 346 191 116 87 273 253 352 371 54 83
176 307 225 417 l13 28 -88 -47 c-48 -26 -94 -52 -101 -57 -24 -19 -20 -1 18
77 78 159 106 342 80 529 -7 51 -14 95 -16 99 -2 4 -42 -11 -88 -33 -140 -65
-262 -69 -367 -12 -67 36 -120 98 -169 195 -59 118 -59 128 -6 228 58 110 100
218 132 338 22 83 26 119 27 247 1 114 -3 165 -17 215 -21 80 -94 230 -114
238 -23 8 -174 -25 -245 -53 -130 -53 -296 -166 -430 -293 l-57 -55 -113 36
c-233 76 -276 82 -622 82 -258 0 -325 -3 -397 -18 -76 -15 -274 -72 -319 -91
-10 -5 -40 16 -93 65 -118 107 -227 184 -340 239 -101 50 -230 90 -291 90 -31
0 -35 -5 -74 -82z m2899 -290 c25 -146 -16 -390 -105 -623 l-26 -70 24 -21
c14 -12 34 -50 47 -90 85 -258 227 -392 429 -402 85 -5 174 9 223 34 18 9 29
10 33 4 4 -6 7 -63 7 -128 1 -103 -2 -127 -26 -196 -38 -112 -105 -237 -180
-336 -35 -47 -59 -87 -54 -89 18 -6 121 20 172 45 27 13 51 23 52 21 7 -6 -95
-170 -157 -253 -205 -274 -528 -475 -841 -525 -43 -6 -78 -15 -78 -19 0 -13
95 -69 128 -76 18 -4 32 -10 32 -15 0 -5 -2 -9 -4 -9 -3 0 -38 -7 -78 -16 -69
-14 -393 -23 -405 -10 -3 2 7 34 21 69 14 36 29 89 34 119 l7 53 105 7 c109 6
252 35 317 64 l38 17 -34 7 c-34 8 -82 38 -88 56 -1 5 24 23 56 41 268 148
540 465 660 771 l21 52 -43 0 c-116 0 -268 70 -368 170 -71 71 -97 117 -108
188 -6 44 -8 47 -46 55 -22 5 -87 7 -145 4 -166 -7 -322 -69 -440 -174 -26
-24 -50 -43 -53 -43 -4 0 -4 21 0 48 3 30 0 60 -9 82 l-14 35 -39 -74 c-45
-84 -129 -181 -194 -223 -25 -15 -48 -28 -53 -28 -11 0 -51 83 -77 159 -34 99
-77 285 -95 411 -26 179 -26 179 -56 0 -42 -243 -78 -382 -133 -503 -35 -78
-40 -79 -124 -16 -60 45 -128 130 -171 213 -27 54 -31 57 -41 38 -6 -11 -11
-48 -11 -81 l0 -61 -62 51 c-79 63 -221 132 -315 153 -75 17 -177 20 -255 10
-45 -6 -46 -7 -52 -52 -9 -67 -42 -128 -102 -188 -96 -96 -263 -174 -371 -174
-41 0 -44 -2 -38 -22 3 -13 35 -81 70 -153 132 -266 351 -502 599 -647 l70
-41 -30 -24 c-16 -13 -46 -26 -67 -30 -47 -7 -40 -15 43 -42 87 -28 228 -51
310 -51 l67 0 12 -68 c7 -38 23 -92 36 -120 14 -29 20 -54 14 -57 -22 -14
-326 -6 -404 10 -89 19 -96 22 -69 30 38 12 123 57 139 75 15 17 14 18 -37 25
-126 16 -296 72 -425 141 -220 118 -419 314 -553 545 -61 103 -61 103 1 74 53
-24 151 -50 168 -43 5 2 -20 44 -56 93 -153 213 -227 446 -197 626 l6 36 52
-20 c41 -17 74 -21 171 -22 113 0 124 2 180 29 120 59 232 207 281 371 10 35
28 69 42 81 29 25 29 23 -23 172 -55 157 -75 261 -81 412 -6 143 7 222 36 228
51 9 248 -158 373 -316 89 -112 138 -133 208 -89 35 21 89 77 89 92 0 4 -16
26 -35 49 -19 24 -35 46 -35 49 0 10 174 68 300 100 l125 32 315 0 c268 0 328
-3 400 -18 99 -22 360 -106 360 -117 0 -4 -9 -15 -21 -26 -12 -10 -30 -31 -40
-45 l-18 -26 35 -42 c63 -73 125 -90 181 -48 17 12 75 76 130 142 100 121 159
174 268 239 72 43 78 40 95 -66z m-2210 -1668 c162 -28 349 -90 385 -130 16
-18 15 -20 -37 -49 -114 -66 -210 -33 -405 138 -58 50 -65 64 -30 56 12 -2 51
-9 87 -15z m1710 -42 c-180 -163 -304 -204 -410 -134 -22 14 -40 31 -40 36 0
13 90 58 172 86 88 29 316 75 328 66 3 -2 -20 -27 -50 -54z m-706 -26 l49 -22
-21 -23 -22 -23 64 -66 c72 -73 141 -201 174 -323 l20 -70 23 78 c13 42 26 77
30 77 7 0 45 -123 60 -200 6 -30 11 -101 10 -158 0 -111 -15 -182 -58 -266
-27 -54 -124 -162 -154 -171 -12 -4 -36 7 -72 34 -107 81 -235 120 -334 102
-68 -13 -182 -66 -237 -110 -21 -17 -44 -31 -51 -31 -20 0 -90 67 -129 123
-109 158 -123 359 -45 618 24 82 25 81 54 -23 8 -32 19 -58 23 -58 4 0 13 22
19 49 30 129 99 255 187 343 57 57 58 59 41 78 -10 11 -16 22 -14 24 2 2 31
14 64 25 82 29 245 25 319 -7z"/>
<path d="M2100 1134 c-77 -33 -112 -97 -87 -156 32 -73 131 -158 185 -158 53
0 182 137 182 193 0 79 -80 137 -186 137 -32 -1 -75 -8 -94 -16z m161 -44 c22
-12 25 -42 7 -58 -38 -31 -149 -20 -163 16 -15 41 100 72 156 42z"/>
</g>
</svg>
